<svg width="55" height="48" viewBox="0 0 55 48" fill="none" xmlns="http://www.w3.org/2000/svg">
<g clip-path="url(#clip0_3_48)">
<path d="M41.2501 0H13.7501C11.9267 0 10.178 0.632141 8.8887 1.75736C7.59939 2.88258 6.87506 4.4087 6.87506 6V42C6.87506 43.5913 7.59939 45.1174 8.8887 46.2426C10.178 47.3679 11.9267 48 13.7501 48H41.2501C43.0734 48 44.8221 47.3679 46.1114 46.2426C47.4007 45.1174 48.1251 43.5913 48.1251 42V6C48.1251 4.4087 47.4007 2.88258 46.1114 1.75736C44.8221 0.632141 43.0734 0 41.2501 0V0ZM34.3751 34.5V16.5C34.3751 16.1022 34.5561 15.7206 34.8785 15.4393C35.2008 15.158 35.638 15 36.0938 15H39.5313C39.9872 15 40.4243 15.158 40.7467 15.4393C41.069 15.7206 41.2501 16.1022 41.2501 16.5V34.5C41.2501 34.8978 41.069 35.2794 40.7467 35.5607C40.4243 35.842 39.9872 36 39.5313 36H36.0938C35.638 36 35.2008 35.842 34.8785 35.5607C34.5561 35.2794 34.3751 34.8978 34.3751 34.5ZM25.7813 36C25.3255 36 24.8883 35.842 24.566 35.5607C24.2436 35.2794 24.0626 34.8978 24.0626 34.5V22.5C24.0626 22.1022 24.2436 21.7206 24.566 21.4393C24.8883 21.158 25.3255 21 25.7813 21H29.2188C29.6747 21 30.1118 21.158 30.4342 21.4393C30.7565 21.7206 30.9376 22.1022 30.9376 22.5V34.5C30.9376 34.8978 30.7565 35.2794 30.4342 35.5607C30.1118 35.842 29.6747 36 29.2188 36H25.7813ZM15.4688 36C15.013 36 14.5758 35.842 14.2535 35.5607C13.9311 35.2794 13.7501 34.8978 13.7501 34.5V28.5C13.7501 28.1022 13.9311 27.7206 14.2535 27.4393C14.5758 27.158 15.013 27 15.4688 27H18.9063C19.3622 27 19.7993 27.158 20.1217 27.4393C20.444 27.7206 20.6251 28.1022 20.6251 28.5V34.5C20.6251 34.8978 20.444 35.2794 20.1217 35.5607C19.7993 35.842 19.3622 36 18.9063 36H15.4688Z" fill="#FF0000"/>
</g>
<defs>
<clipPath id="clip0_3_48">
<rect width="55" height="48" fill="white"/>
</clipPath>
</defs>
</svg>
