<svg width="15" height="15" viewBox="0 0 15 15" fill="none" xmlns="http://www.w3.org/2000/svg">
<path d="M7.5 0C8.48491 0 9.46018 0.193993 10.3701 0.570904C11.2801 0.947814 12.1069 1.50026 12.8033 2.1967C13.4997 2.89314 14.0522 3.71993 14.4291 4.62987C14.806 5.53982 15 6.51509 15 7.5C15 9.48912 14.2098 11.3968 12.8033 12.8033C11.3968 14.2098 9.48912 15 7.5 15C6.51509 15 5.53982 14.806 4.62987 14.4291C3.71993 14.0522 2.89314 13.4997 2.1967 12.8033C0.790176 11.3968 0 9.48912 0 7.5C0 5.51088 0.790176 3.60322 2.1967 2.1967C3.60322 0.790176 5.51088 0 7.5 0ZM3.75 6L7.5 9.75L11.25 6H3.75Z" fill="black"/>
</svg>
