<svg width="48" height="48" viewBox="0 0 48 48" fill="none" xmlns="http://www.w3.org/2000/svg">
<rect width="48" height="48" rx="15" fill="#05FF00"/>
<path d="M23 5H25V41H23V5Z" fill="#37474F"/>
<path d="M25.817 32.772L27.231 34.186L17.191 44.226L15.777 42.812L25.817 32.772Z" fill="#37474F"/>
<path d="M32.259 42.824L30.845 44.238L20.805 34.198L22.219 32.784L32.259 42.824Z" fill="#37474F"/>
<path d="M4 8H44V36H4V8Z" fill="#CFD8DC"/>
<path d="M3 7H45V11H3V7ZM3 35H45V37H3V35Z" fill="#607D8B"/>
<path d="M31.5 45C32.3284 45 33 44.3284 33 43.5C33 42.6716 32.3284 42 31.5 42C30.6716 42 30 42.6716 30 43.5C30 44.3284 30.6716 45 31.5 45Z" fill="#607D8B"/>
<path d="M16.5 45C17.3284 45 18 44.3284 18 43.5C18 42.6716 17.3284 42 16.5 42C15.6716 42 15 42.6716 15 43.5C15 44.3284 15.6716 45 16.5 45Z" fill="#607D8B"/>
<path d="M31.9 18.9L26 24.9L20 18.9L11.9 26.9L14.1 29.1L20 23.1L26 29.1L34.1 21.1L31.9 18.9Z" fill="#C51162"/>
<path d="M36 24L29 17H36V24Z" fill="#C51162"/>
</svg>
