<svg width="61" height="64" viewBox="0 0 61 64" fill="none" xmlns="http://www.w3.org/2000/svg">
<path d="M33.0577 8.2368C32.6118 8.2368 32.2495 8.61696 32.2495 9.08544C32.2495 9.12896 32.2672 9.16672 32.2733 9.20896H32.2495V29.3293C32.2495 29.7978 32.6118 30.1779 33.0577 30.1779H52.2343V30.153C52.2746 30.1594 52.3106 30.1779 52.3526 30.1779C52.7985 30.1779 53.1609 29.7978 53.1609 29.3293C53.0462 17.7325 44.1109 8.35776 33.0577 8.2368Z" fill="#2F0EF8"/>
<path d="M48.4859 34.2144C48.4859 33.7459 48.1241 33.3658 47.6776 33.3658H30.0492C29.8348 33.3656 29.6292 33.2761 29.4777 33.117C29.3261 32.9578 29.241 32.7421 29.241 32.5171V14.0896H29.2172C29.2233 14.0474 29.241 14.0096 29.241 13.9661C29.241 13.497 28.8786 13.1174 28.4321 13.1174C28.4126 13.1174 28.3967 13.1277 28.3778 13.129V13.1232C28.3058 13.1226 28.2345 13.1174 28.1625 13.1174C16.9385 13.1174 7.83911 22.6643 7.83911 34.4403C7.83911 46.2163 16.9385 55.7632 28.1625 55.7632C39.3865 55.7632 48.4859 46.2163 48.4859 34.4403C48.4859 34.3725 48.4828 34.3053 48.4816 34.2368C48.4816 34.2285 48.4859 34.2221 48.4859 34.2144Z" fill="#FF0F00"/>
</svg>
