<svg width="24" height="24" viewBox="0 0 24 24" fill="none" xmlns="http://www.w3.org/2000/svg">
<path d="M15.86 4.39V19.39C15.86 21.06 17 22 18.25 22C19.39 22 20.64 21.21 20.64 19.39V4.5C20.64 2.96 19.5 2 18.25 2C17 2 15.86 3.06 15.86 4.39ZM9.61 12V19.39C9.61 21.07 10.77 22 12 22C13.14 22 14.39 21.21 14.39 19.39V12.11C14.39 10.57 13.25 9.61 12 9.61C10.75 9.61 9.61 10.67 9.61 12ZM5.75 17.23C7.07 17.23 8.14 18.3 8.14 19.61C8.14 20.93 7.07 22 5.75 22C4.43 22 3.36 20.93 3.36 19.61C3.36 18.3 4.43 17.23 5.75 17.23Z" fill="black"/>
</svg>
